<svg xmlns="http://www.w3.org/2000/svg" width="20" height="19.84" viewBox="0 0 20 19.84">
  <!-- Path with white fill and stroke -->
  <path
    d="M16.22,5.59a4.16,4.16,0,0,0-3.43-1.77A3.7,3.7,0,0,0,10,5,3.69,3.69,0,0,0,7.21,3.82A4.16,4.16,0,0,0,3.78,5.59,4.26,4.26,0,0,0,3.6,9.76a10.79,10.79,0,0,0,2.1,3.09,22.71,22.71,0,0,0,3.23,2.82,1.81,1.81,0,0,0,2.14,0,22.71,22.71,0,0,0,3.23-2.82,10.79,10.79,0,0,0,2.1-3.09A4.26,4.26,0,0,0,16.22,5.59Zm-.65,3.83a10,10,0,0,1-1.93,2.83,22.13,22.13,0,0,1-3.1,2.7h0a.92.92,0,0,1-1.08,0,22.13,22.13,0,0,1-3.1-2.7A10,10,0,0,1,4.43,9.42a3.37,3.37,0,0,1,.1-3.33A3.21,3.21,0,0,1,7.21,4.72a2.84,2.84,0,0,1,2.25,1,.79.79,0,0,0,1.1,0,2.84,2.84,0,0,1,2.23-1,3.21,3.21,0,0,1,2.68,1.37A3.37,3.37,0,0,1,15.57,9.42Z"
    fill="#000000"
    stroke="#000000"
    stroke-width="0.5"
  />
</svg>
